<?xml version="1.0" encoding="utf-8"?>
<!-- Generator: Adobe Adobe Illustrator 24.2.0, SVG Export Plug-In . SVG Version: 6.00 Build 0)  -->
<svg version="1.1" id="Layer_1" xmlns="http://www.w3.org/2000/svg" xmlns:xlink="http://www.w3.org/1999/xlink" x="0px" y="0px"
	 width="298px" height="80px" viewBox="0 0 298 80" style="enable-background:new 0 0 298 80;" xml:space="preserve">
<style type="text/css">
	.st0{fill:#6367A7;}
	.st1{fill:#6668AB;}
	.st2{fill:#FFFFFF;stroke:#FFFFFF;stroke-miterlimit:10;}
	.st3{font-family:'EuphemiaUCAS-Bold';}
	.st4{font-size:52.9866px;}
	.st5{font-family:'SinhalaSangamMN-Bold';}
	.st6{font-size:55.4528px;}
	.st7{fill:#FFFFFF;}
</style>
<text transform="matrix(1.0035 0 0 1 43.5816 58.8896)" class="st2 st3 st4">H</text>
<text transform="matrix(1.0035 0 0 1 85.3321 57.1436)" class="st2 st3 st4">E</text>
<text transform="matrix(1.0035 0 0 1 127.6729 54.7998)" class="st2 st5 st4">G</text>
<text transform="matrix(1.0035 0 0 1 175.0147 57.0088)" class="st2 st5 st6">O</text>
<polygon class="st2" points="12.5,19.16 42.16,19.06 42.25,25.77 31.66,26.41 31.38,39.9 23.92,32.83 23.74,25.67 13.33,26.04 "/>
<polygon class="st2" points="256.37,19.82 284.9,19.62 285.5,26.51 274.02,26.71 274.88,40.9 267.65,48.12 267.85,25.69 
	256.43,26.98 "/>
<path class="st7" d="M241.33,25.51c-0.07-0.37-0.42-0.6-0.77-0.53c-1.02,0.21-1.78,0.59-2.28,0.9c-0.35-0.68-0.82-1.33-1.45-1.92
	c-0.27-0.25-0.69-0.22-0.93,0.05c-0.24,0.28-0.22,0.7,0.05,0.95c1.77,1.63,2.25,4.11,1.5,7.81c-0.5,2.45-0.48,3.69-0.46,4.59
	c0,0.2,0.01,0.38,0,0.55c-0.05,2.15-0.06,2.43-0.95,3.41l-0.07,0.07c-2.98,3.3-3.77,3.59-3.87,3.61c-0.06,0-0.28-0.11-0.45-0.44
	c-0.17-0.33-0.47-1.28,0.5-2.81c0.72-1.14,1.06-1.94,1.08-2.5c0.02-0.63-0.29-1.15-0.62-1.69c-0.42-0.7-0.95-1.57-1.13-3.14
	c-0.04-0.37-0.37-0.64-0.73-0.59c-0.36,0.04-0.62,0.38-0.58,0.75c0.14,1.29,0.49,2.18,0.85,2.87c-2.27,0.52-3.82,2.1-4.83,4.92
	c-1.08,3-4.29,10.61-5.17,11.69c-0.2,0.24-0.42,0.37-0.66,0.39c-0.26,0.02-0.48-0.1-0.53-0.15c-0.49-0.49,0.4-2.69,1.35-5.01
	c1.57-3.86,2.39-9.03,2.78-11.52c0.1-0.64,0.18-1.15,0.23-1.37l0.01-0.04c0.2-0.87,0.2-0.87,2.5-5.57l1.27-2.59
	c3.83-7.85,7.45-9.77,11.71-10.23c0.36-0.04,0.62-0.37,0.59-0.74c-0.04-0.37-0.36-0.64-0.72-0.6c-5.55,0.6-9.24,3.77-12.75,10.96
	l-1.27,2.59c-2.37,4.84-2.37,4.84-2.61,5.86l-0.01,0.04c-0.06,0.27-0.14,0.74-0.25,1.47c-0.39,2.43-1.19,7.5-2.7,11.22
	c-1.4,3.46-2.18,5.36-1.06,6.49c0.25,0.25,0.76,0.54,1.4,0.54c0.04,0,0.07,0,0.11,0c0.43-0.02,1.07-0.19,1.62-0.87
	c0.95-1.18,3.52-7.25,4.83-10.6c1.52,3.15,4.68,8.99,5.17,9.83c0.46,0.78,1.04,1.76,2.1,1.76c0.63,0,1.2-0.3,1.58-0.83
	c0.49-0.68,0.58-1.62,0.27-2.64c-0.42-1.37-1.41-4.04-2.55-6.68c0.74-0.55,1.82-1.56,3.51-3.44l0.07-0.07
	c1.23-1.36,1.24-2.04,1.3-4.29c0-0.19,0-0.39,0-0.61c-0.01-0.84-0.03-1.99,0.43-4.29c0.35-1.7,0.63-3.88,0.05-5.91
	c0.35-0.24,1.04-0.64,2.04-0.84C241.17,26.23,241.4,25.87,241.33,25.51z M234.71,52.83c0.18,0.59,0.15,1.12-0.08,1.44
	c-0.13,0.18-0.31,0.28-0.52,0.28c-0.24,0-0.48-0.28-0.97-1.11c-0.56-0.96-4.6-8.42-5.64-10.86c0.92-2.39,2.23-3.6,4.22-3.91
	c0.11,0.21,0.19,0.39,0.19,0.53c0,0.08-0.05,0.52-0.87,1.81c-1.36,2.16-0.83,3.66-0.54,4.21c0.37,0.7,0.98,1.13,1.6,1.13
	c0.04,0,0.09,0,0.14-0.01C233.46,49.2,234.38,51.76,234.71,52.83z"/>
</svg>
